# xmcd
#
# Track frame offsets: 
#        150
#        27107
#        78419
#        103014
#        159809
#        178959
#        196836
#        209298
#
# Disc length: 3104 seconds
#
# Revision: 0
# Processed by: cddbd v1.5.2PL0 Copyright (c) Steve Scherf et al.
# Submitted via: ExactAudioCopy v0.95b4
#
DISCID=5d0c1e08
DTITLE=Sharon Jones and the Dap Kings - Want Some More Funk CD2
DYEAR=2006
DGENRE=Funk
TTITLE0=Fish In My Dish
TTITLE1=My Man Is A Mean Man
TTITLE2=You're Gonna Get It
TTITLE3=Medley: There Was A Time-Tighten Up-Funky Chicken-Mashed Potat
TTITLE3=o-I Got That Feeling
TTITLE4=Encore Call: "I Want Some More Funk"
TTITLE5=If It Feels Good
TTITLE6=Got A Thing On My Mind
TTITLE7=Pick It Up, Lay It In The Cut
EXTD=
EXTT0=
EXTT1=
EXTT2=
EXTT3=
EXTT4=
EXTT5=
EXTT6=
EXTT7=
PLAYORDER=
